<svg id="Слой_1" xmlns="http://www.w3.org/2000/svg" xmlns:xlink="http://www.w3.org/1999/xlink" viewBox="0 0 564 184.3"><style>.st0{fill:#fff}.st1{fill:#c4232d}.st1,.st2,.st3{clip-path:url(#SVGID_2_)}.st3{fill:#8d8f8f}</style><path class="st0" d="M0 0h564v184.3H0z"/><defs><path id="SVGID_1_" d="M0 0h564v184.3H0z"/></defs><clipPath id="SVGID_2_"><use xlink:href="#SVGID_1_" overflow="visible"/></clipPath><path class="st1" d="M187.9 77.7c-.8 1.1-1.8 2.1-2.9 3.1-1.1 1-2.4 1.8-3.8 2.5s-2.9 1.3-4.5 1.7c-1.6.4-3.3.6-5 .6-2.9 0-5.5-.5-7.9-1.5-2.4-1-4.4-2.4-6.1-4.1-1.7-1.8-3.1-3.8-4-6.2-.9-2.4-1.4-5-1.4-7.9 0-2.8.5-5.4 1.4-7.8.9-2.4 2.3-4.6 4-6.3 1.7-1.8 3.8-3.2 6.2-4.3 2.4-1 5.1-1.6 8-1.6 3.5 0 6.6.6 9.2 1.9 2.6 1.3 4.8 3.1 6.5 5.6l-5.8 5.6c-1.1-1.6-2.5-2.9-4-3.8-1.5-1-3.4-1.4-5.6-1.4-1.7 0-3.2.3-4.6.9-1.4.6-2.5 1.5-3.5 2.6-.9 1.1-1.7 2.4-2.2 3.8-.5 1.5-.8 3-.8 4.6 0 1.7.3 3.2.8 4.7.5 1.4 1.2 2.7 2.2 3.7.9 1.1 2.1 1.9 3.4 2.5 1.3.6 2.8.9 4.5.9 1.4 0 2.5-.1 3.5-.4 1-.3 1.9-.7 2.7-1.1.8-.5 1.5-1 2.1-1.6.6-.6 1.2-1.3 1.8-1.9l5.8 5.2zm16.7.7c1 0 1.9-.2 2.7-.6.8-.4 1.5-.9 2-1.6.5-.7 1-1.4 1.2-2.3.3-.8.4-1.7.4-2.6 0-.9-.1-1.8-.4-2.6-.3-.9-.7-1.6-1.2-2.3-.5-.7-1.2-1.2-2-1.6-.8-.4-1.7-.6-2.7-.6-1 0-1.9.2-2.8.6-.8.4-1.5.9-2 1.6-.5.7-.9 1.4-1.2 2.3-.3.8-.4 1.7-.4 2.6 0 .9.1 1.8.4 2.6.3.9.7 1.6 1.2 2.3.5.7 1.2 1.2 2 1.6.9.4 1.8.6 2.8.6m-14.3-7.1c0-2 .4-3.8 1-5.5.7-1.7 1.7-3.2 2.9-4.5 1.2-1.3 2.7-2.3 4.5-3 1.8-.7 3.7-1.1 5.8-1.1 2.1 0 4 .4 5.8 1.1 1.7.7 3.2 1.8 4.5 3 1.2 1.3 2.2 2.8 2.9 4.5.7 1.7 1 3.6 1 5.5 0 2-.4 3.8-1 5.5-.7 1.7-1.7 3.2-2.9 4.5-1.2 1.3-2.7 2.3-4.5 3.1-1.7.8-3.7 1.1-5.8 1.1-2.1 0-4.1-.4-5.8-1.1-1.8-.8-3.3-1.8-4.5-3.1-1.2-1.3-2.2-2.8-2.9-4.5-.6-1.7-1-3.5-1-5.5m56.9 9.8c-1.1 1.2-2.5 2.2-4.3 3.1-1.8.9-3.9 1.3-6.4 1.3-2.2 0-4.1-.3-5.9-1-1.8-.7-3.3-1.7-4.5-2.9-1.2-1.3-2.2-2.8-2.9-4.5-.7-1.7-1-3.6-1-5.7 0-2 .4-3.8 1.1-5.5.7-1.7 1.7-3.2 3-4.5 1.3-1.3 2.8-2.3 4.5-3 1.8-.7 3.7-1.1 5.7-1.1 2.4 0 4.5.4 6.3 1.2 1.8.8 3.3 1.8 4.5 3.2l-4.9 5.3c-.6-.7-1.3-1.3-2.2-1.8-.9-.5-2-.8-3.5-.8-1 0-1.9.2-2.6.6-.8.4-1.4.9-2 1.6-.6.6-1 1.4-1.2 2.2-.3.9-.4 1.7-.4 2.7 0 .9.1 1.7.4 2.6.3.8.7 1.6 1.2 2.3.5.7 1.2 1.2 2 1.6.8.4 1.7.6 2.6.6 1.4 0 2.6-.3 3.5-.8.9-.5 1.7-1.1 2.3-1.8l4.7 5.1zm19.3-8.2c-.2 0-.5-.1-1.1-.1-.5-.1-1.1-.1-1.8-.1-2.3 0-3.9.3-4.8 1-.9.6-1.4 1.5-1.4 2.7 0 2.2 1.3 3.3 4 3.3.6 0 1.3-.1 1.9-.3.6-.2 1.2-.5 1.6-.9.5-.4.9-.8 1.2-1.4.3-.6.5-1.2.5-2v-2.2zm0 9.2c-.9 1.1-2.1 1.9-3.4 2.4-1.4.6-2.9.8-4.6.8-.9 0-1.9-.1-3-.4-1-.3-2-.7-2.9-1.3-.9-.6-1.6-1.5-2.2-2.5-.6-1.1-.9-2.4-.9-4 0-1.5.3-2.9.9-4.1.6-1.2 1.5-2.2 2.6-3 1.1-.8 2.4-1.4 3.9-1.8s3.1-.6 4.8-.6c.9 0 1.9 0 2.9.1 1 0 1.6.1 1.9.2v-.6c0-.7-.1-1.3-.4-1.7-.3-.5-.7-.9-1.1-1.2-.5-.3-1-.5-1.6-.7-.6-.1-1.2-.2-1.9-.2-1.8 0-3.3.2-4.5.7-1.2.5-2.2 1-3 1.5l-3.3-5c.6-.4 1.2-.8 1.9-1.2.7-.4 1.6-.8 2.6-1.1 1-.3 2.1-.6 3.3-.8 1.2-.2 2.6-.3 4.2-.3 4 0 7 1.1 9 3.3 1.9 2.2 2.9 5.1 2.9 8.8v15.5h-7.7l-.4-2.8zm15.6-17.2h18v7.8h-18zm60.4 12.8c-.8 1.1-1.8 2.1-2.9 3.1-1.1 1-2.4 1.8-3.8 2.5s-2.9 1.3-4.5 1.7c-1.6.4-3.3.6-5 .6-2.9 0-5.5-.5-7.9-1.5-2.4-1-4.4-2.4-6.1-4.1-1.7-1.8-3.1-3.8-4-6.2-.9-2.4-1.4-5-1.4-7.9 0-2.8.5-5.4 1.4-7.8.9-2.4 2.3-4.6 4-6.3 1.7-1.8 3.8-3.2 6.2-4.3 2.4-1 5.1-1.6 8-1.6 3.5 0 6.6.6 9.2 1.9 2.6 1.3 4.8 3.1 6.5 5.6l-5.8 5.6c-1.1-1.6-2.5-2.9-4-3.8-1.6-1-3.4-1.4-5.6-1.4-1.7 0-3.2.3-4.6.9-1.4.6-2.5 1.5-3.5 2.6-.9 1.1-1.7 2.4-2.2 3.8-.5 1.5-.8 3-.8 4.6 0 1.7.3 3.2.8 4.7.5 1.4 1.2 2.7 2.2 3.7.9 1.1 2.1 1.9 3.4 2.5 1.3.6 2.8.9 4.5.9 1.4 0 2.5-.1 3.5-.4 1-.3 1.9-.7 2.7-1.1.8-.5 1.5-1 2.1-1.6.6-.6 1.2-1.3 1.8-1.9l5.8 5.2zm16.7.7c1 0 1.9-.2 2.7-.6.8-.4 1.5-.9 2-1.6.5-.7 1-1.4 1.2-2.3.3-.8.4-1.7.4-2.6 0-.9-.1-1.8-.4-2.6-.3-.9-.7-1.6-1.2-2.3-.6-.7-1.2-1.2-2-1.6-.8-.4-1.7-.6-2.7-.6-1 0-1.9.2-2.8.6-.8.4-1.5.9-2 1.6-.5.7-.9 1.4-1.2 2.3-.3.8-.4 1.7-.4 2.6 0 .9.1 1.8.4 2.6.3.9.7 1.6 1.2 2.3.5.7 1.2 1.2 2 1.6.9.4 1.8.6 2.8.6m-14.3-7.1c0-2 .3-3.8 1-5.5.7-1.7 1.7-3.2 2.9-4.5 1.2-1.3 2.7-2.3 4.5-3 1.8-.7 3.7-1.1 5.8-1.1 2.1 0 4 .4 5.8 1.1 1.7.7 3.2 1.8 4.5 3 1.2 1.3 2.2 2.8 2.9 4.5.7 1.7 1.1 3.6 1.1 5.5 0 2-.4 3.8-1.1 5.5-.7 1.7-1.7 3.2-2.9 4.5-1.2 1.3-2.7 2.3-4.5 3.1-1.7.8-3.7 1.1-5.8 1.1-2.1 0-4.1-.4-5.8-1.1-1.8-.8-3.3-1.8-4.5-3.1-1.2-1.3-2.2-2.8-2.9-4.5-.6-1.7-1-3.5-1-5.5M378 46.8h8.2v37.8H378zm30.5 26.1c-.2 0-.6-.1-1.1-.1-.5-.1-1.1-.1-1.8-.1-2.3 0-3.9.3-4.8 1-1 .6-1.4 1.5-1.4 2.7 0 2.2 1.3 3.3 4 3.3.6 0 1.3-.1 1.9-.3.6-.2 1.2-.5 1.6-.9.5-.4.9-.8 1.2-1.4.3-.6.5-1.2.5-2v-2.2zm0 9.2c-.9 1.1-2 1.9-3.4 2.4-1.4.6-2.9.8-4.6.8-.9 0-1.9-.1-3-.4-1-.3-2-.7-2.9-1.3-.9-.6-1.6-1.5-2.2-2.5-.6-1.1-.9-2.4-.9-4 0-1.5.3-2.9.9-4.1.6-1.2 1.5-2.2 2.6-3 1.1-.8 2.4-1.4 3.9-1.8 1.5-.4 3.1-.6 4.8-.6.9 0 1.9 0 2.9.1 1 0 1.6.1 1.9.2v-.6c0-.7-.1-1.3-.4-1.7-.3-.5-.7-.9-1.1-1.2-.5-.3-1-.5-1.6-.7-.6-.1-1.2-.2-1.9-.2-1.8 0-3.3.2-4.5.7-1.2.5-2.2 1-3 1.5l-3.3-5c.6-.4 1.2-.8 1.9-1.2.7-.4 1.6-.8 2.6-1.1 1-.3 2.1-.6 3.3-.8 1.2-.2 2.6-.3 4.2-.3 4 0 7 1.1 9 3.3 1.9 2.2 2.9 5.1 2.9 8.8v15.5h-7.7l-.4-2.8z"/><path class="st2" d="M102.3 118.5v-.8c.1-1.4.2-2.4.2-2.8 0-1 1.7-11.3 1.9-13.6.2-2.4-.4-2.9-.4-2.9 1.6-8.8-1.4-18.2-1.4-18.2 1-.9-1.1-5.6-1.1-5.6-1.6-3.9-3.6-9.3-3.6-9.3-.3-1.2-.8-3-1.1-5-.3-3-.3-6.1-.3-7.1 0-.8 1-.7 1-1.4 0-.8-1-2.8-1-3 0-.2 0-.5.1-.7.1-.2.3-.4.3-.4 0-.9-.7-1.9-1.8-1.9h-8.6c-1.1 0-1.8.9-1.8 1.9 0 0 .2.2.3.4.1.2.1.5.1.7-.1.2-1 2.2-1 3 0 .7 1 .7 1 1.4 0 1 0 4.1-.3 7.1-.3 2-.8 3.8-1.1 5.1 0 0-2 5.5-3.6 9.3 0 0-2.2 4.7-1.1 5.6 0 0-2.9 9.4-1.4 18.2 0 0-.6.6-.4 2.9.2 2.4 1.9 12.6 1.9 13.6 0 .4.1 1.4.2 2.8v.7c0 6.2-2.6 9.3-2.6 13.3 0 5.4 3.4 8.2 14.1 8.2s14.1-2.8 14.1-8.2c0-4-2.6-7-2.6-13.3"/><path class="st3" d="M49.9 118.5v-.8c.1-1.4.2-2.4.2-2.8 0-1 1.7-11.3 1.9-13.6.2-2.4-.4-2.9-.4-2.9 1.6-8.8-1.4-18.2-1.4-18.2 1.1-.9-1.1-5.6-1.1-5.6-1.6-3.9-3.6-9.3-3.6-9.3-.3-1.2-.8-3-1.1-5-.3-3-.3-6.1-.3-7.1 0-.8 1-.7 1-1.4 0-.8-1-2.8-1-3 0-.1 0-.5.1-.7.1-.2.3-.4.3-.4 0-.9-.7-1.9-1.8-1.9h-8.6c-1.1 0-1.8.9-1.8 1.9 0 0 .2.2.3.4.1.2.1.6.1.7-.1.2-1 2.2-1 3 0 .7 1 .7 1 1.4 0 1 0 4.1-.3 7.1-.3 2-.8 3.8-1.1 5.1 0 0-2 5.5-3.6 9.3 0 0-2.2 4.7-1.1 5.6 0 0-2.9 9.4-1.4 18.2 0 0-.6.6-.4 2.9.2 2.4 1.9 12.6 1.9 13.6 0 .4.1 1.4.2 2.8v.8c0 6.2-2.6 9.3-2.6 13.3 0 5.4 3.4 8.2 14.1 8.2s14.1-2.8 14.1-8.2c0-4.1-2.6-7.1-2.6-13.4"/><path class="st1" d="M79.5 125.3v-1c.1-1.8.2-3.1.2-3.6 0-1.3 2.2-14.5 2.5-17.6.3-3.1-.5-3.8-.5-3.8C83.8 88 80 75.8 80 75.8c1.4-1.2-1.5-7.2-1.5-7.2-2.1-5-4.6-12.1-4.6-12.1-.4-1.6-1-3.9-1.4-6.5-.4-3.9-.4-7.9-.4-9.2 0-1 1.3-.9 1.3-1.9 0-1.1-1.3-3.6-1.3-3.9-.1-.2 0-.6.1-.9.1-.3.4-.5.4-.5 0-1.2-.9-2.4-2.4-2.4H59c-1.4 0-2.4 1.2-2.4 2.4 0 0 .3.2.4.5.1.3.1.7.1.9-.1.3-1.4 2.8-1.4 3.9 0 .9 1.3.9 1.3 1.9 0 1.3 0 5.3-.4 9.2-.4 2.6-1 4.9-1.4 6.5 0 0-2.5 7.1-4.6 12.1 0 0-2.8 6-1.5 7.2 0 0-3.8 12.1-1.8 23.5 0 0-.8.7-.5 3.8.3 3.1 2.5 16.3 2.5 17.6 0 .5.2 1.8.2 3.6v1c0 8.1-3.3 12-3.3 17.2 0 6.9 4.4 10.5 18.2 10.5 13.8 0 18.2-3.6 18.2-10.5.2-5.2-3.1-9.1-3.1-17.2"/><path class="st2" d="M153.7 102.4h13.7c2.3 0 4.3.3 6 1 1.7.7 3 1.6 4.1 2.7 1.1 1.1 1.9 2.4 2.4 3.9s.8 3 .8 4.6c0 2-.3 3.8-1 5.3s-1.6 2.8-2.8 3.8c-1.2 1-2.6 1.8-4.1 2.3-1.5.5-3.2.8-4.9.8H162V140h-8.3v-37.6zm13.3 17.5c1.6 0 2.8-.5 3.8-1.4.9-1 1.4-2.2 1.4-3.8 0-1.6-.5-2.9-1.4-3.9-.9-1-2.2-1.5-3.8-1.5h-5v10.6h5zm15.9 6.7c0-2 .3-3.9 1-5.6.7-1.7 1.7-3.2 2.9-4.5 1.2-1.3 2.7-2.3 4.5-3 1.8-.7 3.7-1.1 5.8-1.1 2.1 0 4 .4 5.7 1.1s3.2 1.8 4.5 3c1.2 1.3 2.2 2.8 2.9 4.5.7 1.7 1 3.6 1 5.6 0 2-.3 3.9-1 5.6-.7 1.7-1.7 3.2-2.9 4.5-1.2 1.3-2.7 2.3-4.5 3.1s-3.7 1.1-5.7 1.1c-2.1 0-4-.4-5.8-1.1-1.7-.8-3.2-1.8-4.5-3.1-1.2-1.3-2.2-2.8-2.9-4.5-.6-1.7-1-3.6-1-5.6m14.3 7.3c1 0 1.9-.2 2.7-.6.8-.4 1.5-1 2-1.6.5-.7.9-1.4 1.2-2.3.3-.9.4-1.8.4-2.7 0-.9-.1-1.8-.4-2.7-.3-.9-.7-1.6-1.2-2.3-.5-.7-1.2-1.2-2-1.6-.8-.4-1.7-.6-2.7-.6-1 0-1.9.2-2.7.6-.8.4-1.5.9-2 1.6-.5.7-.9 1.5-1.2 2.3-.3.9-.4 1.8-.4 2.7 0 .9.1 1.8.4 2.7.3.9.7 1.6 1.2 2.3.5.7 1.2 1.2 2 1.6.7.4 1.6.6 2.7.6m42.4 2.6c-1.1 1.2-2.5 2.2-4.3 3.1-1.8.9-3.9 1.3-6.4 1.3-2.1 0-4.1-.4-5.8-1.1-1.8-.7-3.2-1.7-4.5-3-1.2-1.3-2.2-2.8-2.9-4.5-.7-1.7-1-3.6-1-5.6 0-2 .3-3.9 1-5.7.7-1.8 1.7-3.3 3-4.6 1.3-1.3 2.8-2.3 4.6-3 1.8-.7 3.7-1.1 5.8-1.1 2.3 0 4.4.4 6.2 1.2 1.8.8 3.3 1.9 4.4 3.1l-4.9 5.3c-.5-.6-1.2-1.1-2.1-1.7-.9-.6-2-.9-3.4-.9-1.1 0-2 .2-2.8.6-.8.4-1.5.9-2 1.6-.5.7-1 1.4-1.2 2.3-.3.9-.4 1.8-.4 2.7 0 .9.1 1.8.4 2.7.3.9.7 1.7 1.2 2.4s1.2 1.3 2 1.7c.8.4 1.8.6 2.9.6 1.3 0 2.4-.3 3.3-.8.9-.5 1.6-1.1 2.2-1.8l4.7 5.2zm26.3 0c-1.1 1.2-2.5 2.2-4.3 3.1-1.8.9-3.9 1.3-6.4 1.3-2.1 0-4.1-.4-5.8-1.1-1.8-.7-3.2-1.7-4.5-3-1.2-1.3-2.2-2.8-2.9-4.5-.7-1.7-1-3.6-1-5.6 0-2 .3-3.9 1-5.7.7-1.8 1.7-3.3 3-4.6 1.3-1.3 2.8-2.3 4.6-3 1.8-.7 3.7-1.1 5.8-1.1 2.3 0 4.4.4 6.2 1.2 1.8.8 3.3 1.9 4.4 3.1l-5 5.4c-.5-.6-1.2-1.1-2.1-1.7-.9-.6-2-.9-3.4-.9-1.1 0-2 .2-2.8.6-.8.4-1.5.9-2 1.6-.5.7-1 1.4-1.2 2.3-.3.9-.4 1.8-.4 2.7 0 .9.1 1.8.4 2.7.3.9.7 1.7 1.2 2.4s1.2 1.3 2 1.7c.8.4 1.8.6 2.9.6 1.3 0 2.4-.3 3.3-.8.9-.5 1.6-1.1 2.2-1.8l4.8 5.1zm21.9 3.5v-16.3L275.9 140h-6.6v-26.8h7.7V129l11.5-15.8h7V140zm28.9 0v-8.5H314c-.8 0-1.5.2-1.9.5-.5.4-1 1-1.4 2l-3 5.9H299l4-6.8c.6-1.1 1.2-1.9 1.8-2.5.6-.5 1.3-1 2.1-1.3-.8-.2-1.5-.6-2.3-1-.7-.4-1.4-1-1.9-1.6-.6-.7-1-1.4-1.4-2.3-.3-.9-.5-1.8-.5-2.9 0-1.4.3-2.6.8-3.6.5-1.1 1.3-1.9 2.2-2.7.9-.7 1.9-1.3 3.1-1.6 1.2-.4 2.4-.5 3.7-.5h13.9V140h-7.8zm0-20.8h-4.1c-1.2 0-2.1.3-2.7.8-.7.6-1 1.4-1 2.5 0 1.2.4 2.1 1.2 2.5.8.5 1.8.7 3.1.7h3.6v-6.5z"/><path class="st1" d="M433 47.8h8.6v14.4h16.3V47.8h8.5v37.6h-8.5V69.9h-16.3v15.5H433zm38.9 0H486c2.3 0 4.3.3 5.9.8 1.6.5 2.9 1.3 4 2.2 1 .9 1.7 1.9 2.2 3.1.5 1.2.7 2.4.7 3.7 0 1.2-.2 2.3-.6 3.2-.4.9-.9 1.7-1.5 2.4s-1.2 1.2-1.9 1.6c-.7.4-1.2.6-1.6.7.6.2 1.4.5 2.3.8.9.4 1.7.9 2.5 1.7.8.7 1.5 1.7 2 2.8.5 1.1.8 2.4.8 3.9 0 2-.3 3.6-1 5s-1.7 2.5-2.9 3.3c-1.3.9-2.8 1.5-4.6 1.9-1.8.4-3.9.6-6.1.6h-14.1V47.8zm13.4 15c.6 0 1.3-.1 1.9-.2.6-.2 1.2-.4 1.6-.7.5-.3.9-.8 1.2-1.3.3-.5.4-1.2.4-2s-.1-1.5-.4-2.1c-.3-.5-.7-1-1.2-1.3-.5-.3-1-.5-1.7-.7-.6-.1-1.2-.2-1.8-.2h-5v8.5h5zm.5 16.1c.6 0 1.3 0 2-.1.8-.1 1.4-.3 2.1-.6.6-.3 1.2-.8 1.6-1.5.4-.6.6-1.5.6-2.6 0-1-.2-1.8-.6-2.5-.4-.6-.9-1.1-1.6-1.5-.6-.4-1.3-.6-2.1-.7-.8-.1-1.4-.2-2.1-.2h-5.5V79h5.6zm53.9-.4c-.8 1.1-1.8 2.1-2.9 3.1-1.1 1-2.4 1.8-3.7 2.5-1.4.7-2.9 1.3-4.5 1.7-1.6.4-3.3.6-5 .6-2.9 0-5.5-.5-7.8-1.5-2.4-1-4.4-2.3-6.1-4.1-1.7-1.7-3-3.8-4-6.2-.9-2.4-1.4-5-1.4-7.9 0-2.8.5-5.4 1.4-7.8.9-2.4 2.3-4.5 4-6.3 1.7-1.8 3.8-3.2 6.2-4.2 2.4-1 5-1.6 7.9-1.6 3.5 0 6.6.6 9.2 1.9 2.6 1.3 4.8 3.1 6.5 5.5l-5.8 5.6c-1.1-1.6-2.5-2.9-4-3.8-1.5-1-3.4-1.4-5.5-1.4-1.7 0-3.2.3-4.6.9-1.4.6-2.5 1.5-3.4 2.6-.9 1.1-1.7 2.4-2.2 3.8-.5 1.4-.8 3-.8 4.6 0 1.7.3 3.2.8 4.6.5 1.4 1.2 2.7 2.2 3.7.9 1.1 2.1 1.9 3.4 2.5 1.3.6 2.8.9 4.5.9 1.4 0 2.5-.1 3.5-.4 1-.3 1.9-.7 2.7-1.1.8-.5 1.5-1 2.1-1.6.6-.6 1.2-1.2 1.7-1.9l5.6 5.3z"/></svg>