<svg id="Слой_1" xmlns="http://www.w3.org/2000/svg" xmlns:xlink="http://www.w3.org/1999/xlink" viewBox="0 0 74.4 59.1"><style>.st0{clip-path:url(#SVGID_2_);fill:#fff}</style><defs><path id="SVGID_1_" d="M0 0h74.4v59.1H0z"/></defs><clipPath id="SVGID_2_"><use xlink:href="#SVGID_1_" overflow="visible"/></clipPath><path class="st0" d="M37.2 52.8c0 1.3-.8 2.5-1.9 3.1-.5.2-.9.3-1.4.3-.8 0-1.5-.3-2.2-.8L13.2 40.1H3.4c-1.9 0-3.4-1.5-3.4-3.4V23.2c0-1.9 1.5-3.4 3.4-3.4h9.8L31.7 4.5c1-.8 2.4-1 3.6-.5 1.2.6 1.9 1.7 1.9 3.1v45.7zm13-5.3H50c-.9 0-1.8-.4-2.4-1l-.5-.5c-1.2-1.2-1.3-3.1-.3-4.4 2.5-3.4 3.9-7.5 3.9-11.7 0-4.6-1.5-8.8-4.4-12.4-1.1-1.3-1-3.3.2-4.5l.5-.5c.7-.7 1.6-1 2.6-1s1.8.5 2.4 1.2c4 4.9 6.1 10.8 6.1 17.1 0 5.9-1.9 11.5-5.4 16.2-.6.9-1.5 1.4-2.5 1.5m14 10.4c-.6.7-1.5 1.2-2.4 1.2h-.1c-.9 0-1.8-.4-2.4-1l-.4-.4c-1.2-1.2-1.3-3.2-.2-4.6C64 46.6 67 38.4 67 29.9c0-8.8-3.2-17.3-9.1-23.9-1.2-1.3-1.1-3.4.1-4.6l.6-.4c.7-.7 1.5-1 2.5-1 .9 0 1.8.4 2.4 1.1C70.6 9 74.4 19.3 74.4 29.9c0 10.3-3.6 20.2-10.2 28"/></svg>