<?xml version="1.0" encoding="utf-8"?>
<!-- Generator: Adobe Illustrator 22.0.0, SVG Export Plug-In . SVG Version: 6.00 Build 0)  -->
<svg version="1.1" id="Vector_Graphics" xmlns="http://www.w3.org/2000/svg" xmlns:xlink="http://www.w3.org/1999/xlink" x="0px"
	 y="0px" viewBox="0 0 658.5 493.5" style="enable-background:new 0 0 658.5 493.5;" xml:space="preserve">
<style type="text/css">
	.st0{fill:#F40000;}
</style>
<path class="st0" d="M63.5,15.8c-1.1-1.7-2.1-3.1-2.4-5.9c0.7-0.3,1.2-1,1.2-1.8c0-1.1-0.9-2-2-2H11.7c-1.1,0-2,0.9-2,2
	c0,0.8,0.5,1.5,1.2,1.8c-0.3,2.8-1.3,4.2-2.4,5.9C6.8,18.2,5,20.9,5,28.1v79.1c0,5.7,1.9,6.8,4,8c1.2,0.7,2.5,1.4,3.6,3.4
	c0.9,1.5,3.5,3.1,6.8,3.1h33.1c3.3,0,5.9-1.6,6.8-3.1c1.1-1.9,2.4-2.7,3.6-3.4c2.1-1.2,4-2.3,4-8V28.1C67,20.9,65.1,18.2,63.5,15.8z
	"/>
</svg>
