<svg id="Слой_1" xmlns="http://www.w3.org/2000/svg" xmlns:xlink="http://www.w3.org/1999/xlink" viewBox="0 0 62 115.6"><style>.st0{clip-path:url(#SVGID_2_);fill:#f40000}</style><defs><path id="SVGID_1_" d="M0 0h62v115.6H0z"/></defs><clipPath id="SVGID_2_"><use xlink:href="#SVGID_1_" overflow="visible"/></clipPath><path class="st0" d="M58.5 9.8c-1.1-1.7-2.1-3.1-2.4-5.9.7-.3 1.2-1 1.2-1.8 0-1.1-.9-2-2-2H6.7c-1.1 0-2 .9-2 2 0 .8.5 1.5 1.2 1.8-.4 2.8-1.3 4.2-2.5 5.9C1.8 12.2 0 14.9 0 22.1v79.1c0 5.7 1.9 6.8 4 8 1.2.7 2.5 1.4 3.6 3.4.9 1.5 3.5 3.1 6.8 3.1h33.1c3.3 0 5.9-1.6 6.8-3.1 1.1-1.9 2.4-2.7 3.6-3.4 2.1-1.2 4-2.3 4-8V22.1c.1-7.2-1.8-9.9-3.4-12.3"/></svg>