<svg id="Слой_1" xmlns="http://www.w3.org/2000/svg" xmlns:xlink="http://www.w3.org/1999/xlink" viewBox="0 0 42.2 139.1"><style>.st0{clip-path:url(#SVGID_2_);fill:#ccc}</style><defs><path id="SVGID_1_" d="M0 0h42.2v139.1H0z"/></defs><clipPath id="SVGID_2_"><use xlink:href="#SVGID_1_" overflow="visible"/></clipPath><path class="st0" d="M38.6 139.1h-35c-1.4 0-2.6-1.2-2.6-2.6s1.2-2.6 2.6-2.6h34.9c1.4 0 2.6 1.2 2.6 2.6s-1.1 2.6-2.5 2.6m1-6.4h-37c-1.4 0-2.6-1.2-2.6-2.6 0-1.4 1.2-2.6 2.6-2.6h37.1c1.4 0 2.6 1.2 2.6 2.6-.1 1.4-1.2 2.6-2.7 2.6m-.4-6.4H3c-1.4 0-2.6-1.2-2.6-2.6 0-1.4 1.2-2.6 2.6-2.6h36.1c1.4 0 2.6 1.2 2.6 2.6.1 1.5-1.1 2.6-2.5 2.6m-1.8-6.3H4.8c-1.4 0-2.6-1.2-2.6-2.6 0-1.4 1.2-2.6 2.6-2.6h32.5c1.4 0 2.6 1.2 2.6 2.6.1 1.4-1.1 2.6-2.5 2.6m-1.2-6.4H6.1c-1.4 0-2.6-1.2-2.6-2.6 0-1.4 1.2-2.6 2.6-2.6h30.1c1.4 0 2.6 1.2 2.6 2.6-.1 1.4-1.2 2.6-2.6 2.6m0-6.4H6.1c-1.4 0-2.6-1.2-2.6-2.6 0-1.4 1.2-2.6 2.6-2.6h30.1c1.4 0 2.6 1.2 2.6 2.6-.1 1.4-1.2 2.6-2.6 2.6m.9-6.4h-32c-1.4 0-2.6-1.2-2.6-2.6 0-1.4 1.2-2.6 2.6-2.6H37c1.4 0 2.6 1.2 2.6 2.6.1 1.5-1.1 2.6-2.5 2.6m.8-6.4H4.3c-1.4 0-2.6-1.2-2.6-2.6s1.2-2.6 2.6-2.6h33.6c1.4 0 2.6 1.2 2.6 2.6s-1.2 2.6-2.6 2.6m1-6.3H3.4C2 88.1.8 86.9.8 85.5s1.2-2.6 2.6-2.6h35.5c1.4 0 2.6 1.2 2.6 2.6s-1.2 2.6-2.6 2.6m.5-6.4H2.8c-1.4 0-2.6-1.2-2.6-2.6 0-1.4 1.2-2.6 2.6-2.6h36.6c1.4 0 2.6 1.2 2.6 2.6 0 1.4-1.1 2.6-2.6 2.6m0-6.4H2.8c-1.4 0-2.6-1.2-2.6-2.6 0-1.4 1.2-2.6 2.6-2.6h36.6c1.4 0 2.6 1.2 2.6 2.6 0 1.4-1.1 2.6-2.6 2.6m0-6.4H2.8c-1.4 0-2.6-1.2-2.6-2.6 0-1.4 1.2-2.6 2.6-2.6h36.6c1.4 0 2.6 1.2 2.6 2.6 0 1.5-1.1 2.6-2.6 2.6m-.5-6.3H3.4C2 62.6.8 61.4.8 60c0-1.4 1.2-2.6 2.6-2.6h35.5c1.4 0 2.6 1.2 2.6 2.6 0 1.4-1.2 2.6-2.6 2.6m-1.3-6.4h-33C3.2 56.2 2 55 2 53.6 2 52.2 3.2 51 4.6 51h33.1c1.4 0 2.6 1.2 2.6 2.6-.1 1.4-1.2 2.6-2.7 2.6m-1-6.4H5.7c-1.4 0-2.6-1.2-2.6-2.6 0-1.4 1.2-2.6 2.6-2.6h30.9c1.4 0 2.6 1.2 2.6 2.6-.1 1.4-1.2 2.6-2.6 2.6M35 43.4H7.3c-1.4 0-2.6-1.2-2.6-2.6 0-1.4 1.2-2.6 2.6-2.6H35c1.4 0 2.6 1.2 2.6 2.6 0 1.5-1.2 2.6-2.6 2.6M32.3 37H9.9c-1.4 0-2.6-1.2-2.6-2.6 0-1.4 1.2-2.6 2.6-2.6h22.4c1.4 0 2.6 1.2 2.6 2.6 0 1.5-1.2 2.6-2.6 2.6m-2.6-6.3H12.5c-1.4 0-2.6-1.2-2.6-2.6 0-1.4 1.2-2.6 2.6-2.6h17.3c1.4 0 2.6 1.2 2.6 2.6-.1 1.4-1.2 2.6-2.7 2.6m-.9-6.4H13.5c-1.4 0-2.6-1.2-2.6-2.6 0-1.4 1.2-2.6 2.6-2.6h15.3c1.4 0 2.6 1.2 2.6 2.6-.1 1.4-1.2 2.6-2.6 2.6m-.9-6.4H14.3c-1.4 0-2.6-1.2-2.6-2.6 0-1.4 1.2-2.6 2.6-2.6H28c1.4 0 2.6 1.2 2.6 2.6-.1 1.5-1.2 2.6-2.7 2.6m0-6.4H14.3c-1.4 0-2.6-1.2-2.6-2.6s1.2-2.6 2.6-2.6H28c1.4 0 2.6 1.2 2.6 2.6s-1.2 2.6-2.7 2.6m1.6-6.3H12.7c-1.4 0-2.6-1.2-2.6-2.6 0-1.4 1.2-2.6 2.6-2.6h16.8c1.4 0 2.6 1.2 2.6 2.6 0 1.4-1.1 2.6-2.6 2.6"/></svg>